# AST/ASF file generated using VICON BodyLanguage
# -----------------------------------------------
:version 1.10
:name VICON
:units
  mass 1.0
  length 0.45
  angle deg
:documentation
   .ast/.asf automatically generated from VICON data using
   VICON BodyBuilder and BodyLanguage model FoxedUp or BRILLIANT.MOD
:root
   order TX TY TZ RX RY RZ
   axis XYZ
   position 0 0 0  
   orientation 0 0 0 
:bonedata
  begin
     id 1 
     name lhipjoint
     direction 0.650112 -0.723553 0.232005 
     length 2.45805 
     axis 0 0 0  XYZ
  end
  begin
     id 2 
     name lfemur
     direction 0.34202 -0.939693 0  
     length 7.00073  
     axis 0 0 20  XYZ
    dof rx ry rz
    limits (-160.0 20.0)
           (-70.0 70.0)
           (-60.0 70.0)
  end
  begin
     id 3 
     name ltibia
     direction 0.34202 -0.939693 0   
     length 7.8748   
     axis 0 0 20   XYZ
    dof rx
    limits (-10.0 170.0)
  end
  begin
     id 4 
     name lfoot
     direction 0.0542825 -0.14914 0.987325   
     length 1.75978   
     axis -90 7.62852e-016 20   XYZ
    dof rx rz
    limits (-45.0 90.0)
           (-70.0 20.0)
  end
  begin
     id 5 
     name ltoes
     direction 1.53509e-011 -4.21906e-011 1   
     length 0.893912   
     axis -90 7.62852e-016 20   XYZ
    dof rx
    limits (-90.0 20.0)
  end
  begin
     id 6 
     name rhipjoint
     direction -0.637897 -0.733345 0.235145   
     length 2.42522  
     axis 0 0 0  XYZ 
  end
  begin
     id 7 
     name rfemur
     direction -0.34202 -0.939693 0   
     length 7.02549   
     axis 0 0 -20   XYZ
    dof rx ry rz
    limits (-160.0 20.0)
           (-70.0 70.0)
           (-70.0 60.0)
  end
  begin
     id 8 
     name rtibia
     direction -0.34202 -0.939693 0   
     length 7.71512   
     axis 0 0 -20   XYZ
    dof rx
    limits (-10.0 170.0)
 end
 begin
     id 9 
     name rfoot
     direction -0.0822618 -0.226012 0.970645   
     length 1.90014  
     axis -90 -7.62852e-016 -20   XYZ
    dof rx rz
    limits (-45.0 90.0)
           (-20.0 70.0)
  end
  begin
     id 10 
     name rtoes
     direction -1.53542e-011 -4.21872e-011 1   
     length 0.957341   
     axis -90 -7.62852e-016 -20   XYZ
    dof rx
    limits (-90.0 20.0)
  end
  begin
     id 11 
     name lowerback
     direction -0.0022947 0.999774 -0.0211557   
     length 1.89909   
     axis 0 0 0   XYZ
    dof rx ry rz
    limits (-20.0 45.0)
           (-30.0 30.0)
           (-30.0 30.0)
  end
  begin
     id 12 
     name upperback
     direction 0.0107737 0.998635 0.0511027   
     length 1.8853   
     axis 0 0 0   XYZ
    dof rx ry rz
    limits (-20.0 45.0)
           (-30.0 30.0)
           (-30.0 30.0)
  end
  begin
     id 13 
     name thorax
     direction 0.011824 0.998136 0.0598754   
     length 1.88911   
     axis 0 0 0   XYZ
    dof rx ry rz
    limits (-20.0 45.0)
           (-30.0 30.0)
           (-30.0 30.0)
  end
  begin
     id 14 
     name lowerneck
     direction -0.0685355 0.990319 0.120714   
     length 1.91222   
     axis 0 0 0   XYZ
    dof rx ry rz
    limits (-20.0 45.0)
           (-30.0 30.0)
           (-30.0 30.0)
  end
  begin
     id 15 
     name upperneck
     direction 0.0886204 0.955665 -0.280805   
     length 1.92526   
     axis 0 0 0   XYZ
    dof rx ry rz
    limits (-20.0 45.0)
           (-30.0 30.0)
           (-30.0 30.0)
  end
  begin
     id 16
     name head
     direction 0.0233423 0.993502 -0.111393  
     length 1.96056  
     axis 0 0 0   XYZ
    dof rx ry rz
    limits (-20.0 45.0)
           (-30.0 30.0)
           (-30.0 30.0)
  end
  begin
     id 17 
     name lclavicle
     direction 0.941873 0.32922 0.0670041  
     length 3.31705  
     axis 0 0 0   XYZ
    dof ry rz
    limits (-20.0 10.0)
           (0.0 20.0)
  end
  begin
     id 18 
     name lhumerus
     direction 1 -4.4898e-011 3.38707e-028   
     length 5.29277   
     axis 180 -30 -90   XYZ
    dof rx ry rz
    limits (-60.0 90.0)
           (-90.0 90.0)
           (-90.0 90.0)
  end
  begin
     id 19
     name lradius
     direction 1 -4.48952e-011 1.63213e-028   
     length 2.85226   
     axis 180 -30 -90   XYZ
    dof rx
    limits (-10.0 170.0)
  end
  begin
     id 20
     name lwrist
     direction 1 -4.49001e-011 1.27856e-027   
     length 1.42613   
     axis -1.61767e-015 90 90   XYZ
    dof ry
    limits (-180.0 0.0)
 end
  begin
     id 21 
     name lhand
     direction 1 -4.48976e-011 2.55931e-027   
     length 0.602097   
     axis -1.63363e-015 90 90   XYZ
    dof rx rz
    limits (-90.0 90.0)
           (-45.0 45.0)
  end
  begin
     id 22 
     name lfingers
     direction 1 -4.48986e-011 5.11684e-027   
     length 0.485426   
     axis -3.26723e-015 90 90   XYZ
    dof rx
    limits (0.0 90.0)
  end
  begin
     id 23
     name lthumb
     direction 0.707107 -6.34915e-011 0.707107   
     length 0.696978   
     axis -90 45 -2.25915e-014   XYZ
    dof rx rz
    limits (-45.0 45.0)
           (-45.0 45.0)
  end
  begin
     id 24 
     name rclavicle
     direction -0.939974 0.327078 0.0973096   
     length 3.10337  
     axis 0 0 0   XYZ 
    dof ry rz
    limits (-10.0 20.0)
           (-20.0 0.0)
  end
  begin
     id 25 
     name rhumerus
     direction -1 -4.48975e-011 1.83745e-027  
     length 5.13304   
     axis 180 30 90   XYZ
    dof rx ry rz
    limits (-90.0 60.0)
           (-90.0 90.0)
           (-90.0 90.0)
  end
  begin
     id 26 
     name rradius
     direction -1 -4.48977e-011 7.1775e-029   
     length 2.74305   
     axis 180 30 90   XYZ
    dof rx
    limits (-10.0 170.0)
  end
  begin
     id 27 
     name rwrist
     direction -1 -4.48977e-011 1.27963e-027   
     length 1.37152   
     axis -1.61767e-015 -90 -90   XYZ
    dof ry
    limits (-180.0 0.0)
  end
  begin
     id 28
     name rhand
     direction -1 -4.4888e-011 2.56782e-027   
     length 0.767976   
     axis -1.63363e-015 -90 -90   XYZ
    dof rx rz
    limits (-90.0 90.0)
           (-45.0 45.0)
  end
  begin
     id 29
     name rfingers
     direction -1 -4.48947e-011 5.12384e-027   
     length 0.619162   
     axis -3.26723e-015 -90 -90   XYZ
    dof rx
    limits (0.0 90.0)
  end
  begin
     id 30
     name rthumb
     direction -0.707107 -6.34857e-011 0.707107   
     length 0.888997   
     axis -90 -45 2.25915e-014   XYZ
    dof rx rz
    limits (-45.0 45.0)
           (-45.0 45.0)
  end
:hierarchy
  begin
    root lhipjoint rhipjoint lowerback
    lhipjoint lfemur
    lfemur ltibia
    ltibia lfoot
    lfoot ltoes
    rhipjoint rfemur
    rfemur rtibia
    rtibia rfoot
    rfoot rtoes
    lowerback upperback
    upperback thorax
    thorax lowerneck lclavicle rclavicle
    lowerneck upperneck
    upperneck head
    lclavicle lhumerus
    lhumerus lradius
    lradius lwrist
    lwrist lhand lthumb
    lhand lfingers
    rclavicle rhumerus
    rhumerus rradius
    rradius rwrist
    rwrist rhand rthumb
    rhand rfingers
  end

#!OML:ASF F:\VICON\USERDATA\INSTALL\rory3\rory3.ASF
:FULLY-SPECIFIED
:DEGREES
116
root 0.0624678 17.4956 -0.421106 4.75371 -1.41635 -1.2737
lowerback -4.87724 -0.115278 -0.552904
upperback -0.696179 -0.14282 0.828807
thorax 2.02187 -0.0778497 1.15217
lowerneck -14.584 -13.0682 -16.4447
upperneck 18.6726 -18.9287 18.5479
head 12.0605 -8.108 6.31025
rclavicle -5.42775e-015 1.61513e-014
rhumerus -30.0726 -6.08873 -86.3091
rradius 21.0096
rwrist 31.4617
rhand -8.80133 14.2472
rfingers 7.12502
rthumb 17.1377 -15.017
lclavicle -5.42775e-015 1.61513e-014
lhumerus -29.4212 0.790825 91.5336
lradius 17.3631
lwrist -14.8306
lhand -9.54852 24.5113
lfingers 7.12502
lthumb 16.4184 53.8364
rfemur 2.4646 13.3143 20.1034
rtibia 4.77083e-015
rfoot -5.25227 -12.6877
rtoes -15.8402
lfemur -4.53998 -16.9494 -17.621
ltibia 13.2788
lfoot -13.3343 13.3531
ltoes -16.9431
117
root 0.0632058 17.4954 -0.41803 4.76445 -1.34642 -1.32784
lowerback -4.89748 -0.128792 -0.463717
upperback -0.697921 -0.165747 0.839678
thorax 2.03174 -0.0887013 1.11174
lowerneck -14.5559 -13.0672 -16.4877
upperneck 18.6203 -18.9274 18.607
head 12.0478 -8.10819 6.3399
rclavicle 9.28387e-015 -9.93923e-016
rhumerus -30.0771 -5.83446 -86.4146
rradius 21.0664
rwrist 31.1738
rhand -9.02266 14.2027
rfingers 7.12502
rthumb 16.9246 -15.0798
lclavicle 9.28387e-015 -9.93923e-016
lhumerus -29.3718 1.72437 91.0873
lradius 17.3432
lwrist -15.1586
lhand -9.71722 24.5167
lfingers 7.12502
lthumb 16.2559 53.8552
rfemur 2.477 13.2492 20.1665
rtibia -7.95139e-015
rfoot -5.2561 -12.6874
rtoes -15.4583
lfemur -4.57456 -17.0141 -17.5569
ltibia 13.3294
lfoot -13.3484 13.1386
ltoes -15.7813
118
root 0.0633188 17.4962 -0.41661 4.75436 -1.34993 -1.36987
lowerback -4.83736 -0.101184 -0.423696
upperback -0.726281 -0.131312 0.856623
thorax 1.96814 -0.0709208 1.10895
lowerneck -14.4998 -13.0744 -16.5238
upperneck 18.608 -18.939 18.6208
head 12.0403 -8.1184 6.35057
rclavicle -4.68464e-015 1.20016e-014
rhumerus -30.1512 -6.1134 -86.2158
rradius 21.209
rwrist 31.8739
rhand -9.20815 14.4059
rfingers 7.12502
rthumb 16.7461 -14.8918
lclavicle -4.68464e-015 1.20016e-014
lhumerus -29.3493 2.04672 90.8983
lradius 17.3022
lwrist -15.0756
lhand -9.86974 24.5054
lfingers 7.12502
lthumb 16.1091 53.8559
rfemur 2.49393 13.2564 20.2168
rtibia 7.95139e-015
rfoot -5.26476 -12.6922
rtoes -15.1308
lfemur -4.5906 -17.0078 -17.5212
ltibia 13.3961
lfoot -13.4096 13.0497
ltoes -15.695
119
root 0.0624419 17.4946 -0.413954 4.74277 -1.34486 -1.36789
lowerback -4.84121 -0.085037 -0.462921
upperback -0.726254 -0.108476 0.890439
thorax 1.96995 -0.0598998 1.16721
lowerneck -14.4988 -13.1009 -16.5967
upperneck 18.6385 -18.9658 18.6192
head 12.0651 -8.13451 6.35634
rclavicle -4.01529e-015 1.22004e-014
rhumerus -30.1324 -6.25633 -86.0661
rradius 21.2338
rwrist 32.2139
rhand -9.36171 14.6062
rfingers 7.12502
rthumb 16.5982 -14.704
lclavicle -4.01529e-015 1.22004e-014
lhumerus -29.272 2.43444 90.729
lradius 17.2694
lwrist -15.2142
lhand -9.63672 24.7464
lfingers 7.12502
lthumb 16.3335 54.0786
rfemur 2.52235 13.2513 20.2245
rtibia -1.59028e-014
rfoot -5.24753 -12.6969
rtoes -15.5722
lfemur -4.58617 -17.0134 -17.5248
ltibia 13.4299
lfoot -13.4327 13.1576
ltoes -16.3365
120
root 0.0629749 17.4946 -0.411899 4.75288 -1.31132 -1.41286
lowerback -4.85297 -0.0742939 -0.396198
upperback -0.723261 -0.0979206 0.902586
thorax 1.97926 -0.0542492 1.14291
lowerneck -14.5271 -13.1117 -16.6243
upperneck 18.6521 -18.9758 18.6282
head 12.0824 -8.13779 6.36099
rclavicle -6.51952e-015 6.31141e-015
rhumerus -30.1191 -6.27056 -86.0472
rradius 21.2453
rwrist 32.2587
rhand -9.10688 14.4401
rfingers 7.12502
rthumb 16.8436 -14.8494
lclavicle -6.51952e-015 6.31141e-015
lhumerus -29.2156 2.79015 90.517
lradius 17.2836
lwrist -15.6023
lhand -9.53572 24.8254
lfingers 7.12502
lthumb 16.4307 54.1495
rfemur 2.52123 13.2217 20.2744
rtibia -1.59028e-015
rfoot -5.27552 -12.7017
rtoes -16.0022
lfemur -4.60056 -17.0425 -17.4724
ltibia 13.4452
lfoot -13.4613 13.2881
ltoes -17.0327
